<svg id="Camada_1" data-name="Camada 1" xmlns="http://www.w3.org/2000/svg" viewBox="0 0 672.97 138.04"><defs><style>.cls-1{fill:#fff;}.cls-2{fill:#2ce4ee;}.cls-3{fill:#55e0aa;}.cls-4{fill:#98ea8b;}.cls-5{fill:#f26b7f;}.cls-6{fill:#ea5770;}.cls-7{fill:#f8af4b;}</style></defs><title>Logo_GoFinances 3</title><path class="cls-1" d="M186.6,80.7h13v18a12.16,12.16,0,0,1-7.21,11.16,44.94,44.94,0,0,1-17.69,3.66c-19.36,0-33.62-13.29-33.62-31.85S155.36,49.81,175,49.81c10.83,0,19.8,3.7,25.79,10.65l-9.16,8.45a20.84,20.84,0,0,0-15.92-7c-12,0-20.15,8-20.15,19.72,0,11.52,8.18,19.71,20,19.71a23.92,23.92,0,0,0,7.54-1.12,5.11,5.11,0,0,0,3.55-4.84Z"/><path class="cls-1" d="M208.34,88.79c0-14.25,11-24.37,26-24.37s26,10.12,26,24.37-10.91,24.38-26,24.38S208.34,103.05,208.34,88.79Zm38.1,0c0-8.18-5.19-13.11-12.06-13.11s-12.14,4.93-12.14,13.11,5.28,13.12,12.14,13.12S246.44,97,246.44,88.79Z"/><path class="cls-1" d="M284.72,64.6v14h28.51V90H284.72v22.44H270.46V61a10.1,10.1,0,0,1,10.1-10.09H317V62.31H287A2.28,2.28,0,0,0,284.72,64.6Z"/><path class="cls-1" d="M323.18,50.87c0-4.31,3.43-7.66,8.53-7.66s8.54,3.17,8.54,7.39c0,4.58-3.44,7.92-8.54,7.92S323.18,55.18,323.18,50.87Zm1.67,14.25h13.72v47.35H324.85Z"/><path class="cls-1" d="M399.73,85.36v27.11H386v-25c0-7.65-3.52-11.17-9.6-11.17-6.6,0-11.35,4-11.35,12.76v23.41H351.34V65.12h13.11v5.55c3.69-4,9.24-6.25,15.66-6.25C391.29,64.42,399.73,70.93,399.73,85.36Z"/><path class="cls-1" d="M454,85.45v27H441.18v-5.9c-2.55,4.31-7.48,6.6-14.43,6.6-11.09,0-17.69-6.16-17.69-14.34,0-8.36,5.9-14.17,20.33-14.17H440.3c0-5.9-3.52-9.33-10.91-9.33a22.74,22.74,0,0,0-13.64,4.4l-4.93-9.59c5.19-3.7,12.85-5.72,20.42-5.72C445.67,64.42,454,71.11,454,85.45ZM440.3,97.51V92.67h-9.41c-6.43,0-8.45,2.37-8.45,5.54,0,3.43,2.9,5.72,7.74,5.72C434.76,103.93,438.72,101.82,440.3,97.51Z"/><path class="cls-1" d="M514.84,85.36v27.11H501.11v-25c0-7.65-3.52-11.17-9.59-11.17-6.6,0-11.35,4-11.35,12.76v23.41H466.44V65.12h13.11v5.55c3.7-4,9.24-6.25,15.66-6.25C506.39,64.42,514.84,70.93,514.84,85.36Z"/><path class="cls-1" d="M524.25,88.79c0-14.25,11-24.37,26.4-24.37,10,0,17.78,4.31,21.21,12l-10.65,5.72c-2.55-4.48-6.33-6.51-10.65-6.51-6.95,0-12.4,4.84-12.4,13.11s5.45,13.12,12.4,13.12c4.32,0,8.1-1.94,10.65-6.52l10.65,5.81c-3.43,7.57-11.26,12-21.21,12C535.25,113.17,524.25,103.05,524.25,88.79Z"/><path class="cls-1" d="M625.27,92.67H589.46c1.32,5.89,6.34,9.5,13.55,9.5a16.05,16.05,0,0,0,11.88-4.58l7.3,7.92c-4.39,5-11,7.66-19.53,7.66-16.37,0-27-10.3-27-24.38s10.83-24.37,25.26-24.37c13.9,0,24.64,9.33,24.64,24.55C625.54,90,625.36,91.52,625.27,92.67Zm-36-8H612.6A11.24,11.24,0,0,0,601,74.8C594.74,74.8,590.25,78.59,589.28,84.66Z"/><path class="cls-1" d="M630.12,108.07l4.57-9.86a32.4,32.4,0,0,0,16.46,4.58c6.33,0,8.71-1.68,8.71-4.32,0-7.74-28.6.18-28.6-18.74,0-9,8.1-15.31,21.91-15.31,6.51,0,13.73,1.49,18.22,4.13l-4.58,9.77a27.18,27.18,0,0,0-13.64-3.52c-6.16,0-8.8,1.94-8.8,4.4,0,8.1,28.6.27,28.6,18.92,0,8.8-8.18,15-22.35,15C642.61,113.17,634.52,111,630.12,108.07Z"/><path class="cls-2" d="M103.3,45.46a2.11,2.11,0,0,1-1,.69l-8.31,3L24.42,74.52,16.19,51.91,72.87,31.27l15.79,7.37Z"/><path class="cls-3" d="M104.79,21h0l-.37,8.42-.29,6.77-.35,8a0,0,0,0,1,0,0,2.14,2.14,0,0,1-.47,1.23L88.66,38.64,72.87,31.27,90.16,25l14.26-5.18A2.1,2.1,0,0,1,104.79,21Z"/><path class="cls-4" d="M104.42,19.8,90.16,25,72.87,31.27l-20.3-9.46L62.75,0,95.33,15.19l8.2,3.83.06,0A2.15,2.15,0,0,1,104.42,19.8Z"/><path class="cls-5" d="M1.49,92.58a2.11,2.11,0,0,1,1-.69l8.31-3L80.37,63.52,88.6,86.13,31.92,106.76,16.13,99.4Z"/><path class="cls-6" d="M0,117H0l.37-8.42.29-6.77.35-8a0,0,0,0,1,0,0,2.14,2.14,0,0,1,.47-1.23L16.13,99.4l15.79,7.36-17.29,6.29L.37,118.24A2.1,2.1,0,0,1,0,117Z"/><path class="cls-7" d="M.37,118.24l14.26-5.19,17.29-6.29,20.3,9.47L42,138,9.46,122.84,1.26,119s-.05,0-.06,0A2.06,2.06,0,0,1,.37,118.24Z"/></svg>