<svg width="191" height="44" viewBox="0 0 191 44" fill="none" xmlns="http://www.w3.org/2000/svg">
<path d="M32.9049 6.27444L27.5065 26.1657C27.4699 26.2966 27.4311 26.4253 27.3853 26.5517L14.0116 13.3459C13.4102 12.752 12.6665 12.318 11.8497 12.0841C11.0328 11.8503 10.1693 11.8241 9.33951 12.0082C8.50969 12.1923 7.74048 12.5805 7.1034 13.1369C6.46632 13.6933 5.98206 14.3997 5.69564 15.1905L4.32375 13.8358C3.69738 13.218 3.24682 12.4482 3.01737 11.6039C2.78791 10.7595 2.78766 9.87041 3.01664 9.02595C3.24562 8.18149 3.69576 7.41145 4.32177 6.79329C4.94779 6.17513 5.72761 5.73064 6.5828 5.50453L26.7268 0.176123C27.5819 -0.0501218 28.4822 -0.0501636 29.3373 0.176002C30.1924 0.402168 30.9722 0.846575 31.5983 1.46457C32.2244 2.08257 32.6747 2.85239 32.9041 3.69668C33.1334 4.54097 33.1337 5.43 32.9049 6.27444Z" fill="url(#paint0_linear)"/>
<path d="M27.3853 26.5517C27.0991 27.3427 26.6151 28.0493 25.9781 28.606C25.3411 29.1626 24.572 29.5511 23.7421 29.7354C22.9123 29.9197 22.0487 29.8938 21.2317 29.6601C20.4147 29.4264 19.6709 28.9924 19.0693 28.3986L5.69562 15.1905C5.98203 14.3997 6.4663 13.6933 7.10338 13.1369C7.74046 12.5806 8.50967 12.1923 9.33948 12.0082C10.1693 11.8241 11.0328 11.8503 11.8496 12.0841C12.6665 12.318 13.4102 12.752 14.0116 13.3459L27.3853 26.5517Z" fill="#EB2F97"/>
<path d="M26.4959 38.4955L6.35414 43.8262C5.49967 44.0506 4.6005 44.0493 3.74669 43.8225C2.89288 43.5957 2.11439 43.1514 1.48919 42.534C0.863998 41.9167 0.414039 41.148 0.184378 40.3049C-0.0452821 39.4618 -0.0465815 38.5739 0.18061 37.7302L5.57445 17.8367C5.61103 17.7035 5.65219 17.5748 5.69563 17.4483L19.0693 30.6565C20.4069 31.9773 26.1689 32.2098 27.3853 28.8096L28.7572 30.1643C29.3836 30.7822 29.834 31.5522 30.0634 32.3967C30.2927 33.2411 30.2927 34.1304 30.0635 34.9749C29.8343 35.8194 29.3839 36.5894 28.7576 37.2074C28.1313 37.8254 27.3512 38.2697 26.4959 38.4955Z" fill="url(#paint1_linear)"/>
<path d="M60.8894 18.4914H58.8818C57.9283 16.3172 55.8476 14.9151 53.1084 14.9151C49.3151 14.9151 46.4021 17.6244 46.4021 21.9955C46.4021 26.3666 49.3151 29.0986 53.1084 29.0986C56.7051 29.0986 59.3483 26.7075 59.6158 22.8648H52.4225V21.4875H61.4267V22.7203C61.1592 27.1907 57.782 30.6226 53.1084 30.6226C48.3068 30.6226 44.6484 27.0711 44.6484 21.9978C44.6484 16.9245 48.3205 13.3707 53.1084 13.3707C56.7782 13.3685 59.6775 15.2763 60.8894 18.4914Z" fill="white"/>
<path d="M70.408 30.6451C66.6399 30.6451 63.7772 28.0351 63.7772 23.8559C63.7772 19.6768 66.713 17.0645 70.456 17.0645C74.199 17.0645 77.1371 19.6429 77.1371 23.8559C77.1371 28.069 74.1761 30.6451 70.408 30.6451ZM70.408 29.1708C72.9231 29.1708 75.3765 27.4797 75.3765 23.8559C75.3765 20.2322 72.978 18.5388 70.424 18.5388C67.87 18.5388 65.5057 20.2299 65.5057 23.8559C65.5057 27.482 67.8631 29.1708 70.408 29.1708Z" fill="white"/>
<path d="M79.8283 13.4881H91.0024V16.8003H84.0058V20.3767H89.2418V23.5895H84.0058V30.4532H79.8283V13.4881Z" fill="white"/>
<path d="M92.8317 13.3436C92.8317 12.0883 93.8354 11.0858 95.3285 11.0858C96.8216 11.0858 97.8002 12.077 97.8002 13.3436C97.8002 14.6102 96.7873 15.5788 95.3194 15.5788C93.8514 15.5788 92.8317 14.5764 92.8317 13.3436ZM93.2249 16.9696H97.4047V30.4532H93.2204L93.2249 16.9696Z" fill="white"/>
<path d="M109.855 23.1312C109.855 21.2933 108.828 20.2796 107.237 20.2796C105.645 20.2796 104.619 21.2933 104.619 23.1312V30.4532H100.434V16.9696H104.619V18.7578C105.451 17.6289 106.919 16.8229 108.755 16.8229C111.91 16.8229 114.014 18.9497 114.014 22.5735V30.4532H109.852L109.855 23.1312Z" fill="white"/>
<path d="M122.115 16.7755C124.145 16.7755 125.59 17.6944 126.324 18.8775V16.9696H130.509V30.4532H126.324V28.5431C125.565 29.7262 124.122 30.6451 122.09 30.6451C118.763 30.6451 116.094 27.9358 116.094 23.6866C116.094 19.4374 118.763 16.7755 122.115 16.7755ZM123.338 20.3879C121.772 20.3879 120.352 21.5462 120.352 23.6979C120.352 25.8495 121.772 27.0552 123.338 27.0552C124.904 27.0552 126.324 25.8721 126.324 23.7227C126.324 21.5733 124.929 20.3766 123.338 20.3766V20.3879Z" fill="white"/>
<path d="M142.963 23.1312C142.963 21.2933 141.936 20.2796 140.345 20.2796C138.754 20.2796 137.727 21.2933 137.727 23.1312V30.4532H133.543V16.9696H137.727V18.7578C138.559 17.6289 140.027 16.8229 141.863 16.8229C145.019 16.8229 147.122 18.9497 147.122 22.5735V30.4532H142.961L142.963 23.1312Z" fill="white"/>
<path d="M156.055 16.7755C159.485 16.7755 161.904 18.6359 162.613 21.851H158.159C157.818 20.9072 157.132 20.3044 155.982 20.3044C154.489 20.3044 153.467 21.4626 153.467 23.7114C153.467 25.9602 154.496 27.1184 155.982 27.1184C157.126 27.1184 157.793 26.5608 158.159 25.5718H162.613C161.904 28.6876 159.481 30.6451 156.055 30.6451C152.043 30.6451 149.196 27.9877 149.196 23.7114C149.196 19.4351 152.052 16.7755 156.055 16.7755Z" fill="white"/>
<path d="M170.909 30.6451C166.896 30.6451 164.008 27.9877 164.008 23.7114C164.008 19.4351 166.845 16.7755 170.909 16.7755C174.899 16.7755 177.711 19.3855 177.711 23.4924C177.711 23.8961 177.686 24.2995 177.638 24.7003H168.169C168.316 26.4659 169.416 27.2878 170.762 27.2878C171.938 27.2878 172.591 26.7075 172.939 25.9828H177.393C176.732 28.6153 174.311 30.6451 170.909 30.6451ZM168.192 22.4064H173.428C173.428 20.9321 172.255 20.0854 170.861 20.0854C169.466 20.0854 168.437 20.9072 168.192 22.4064Z" fill="white"/>
<path d="M185.469 30.6452C181.822 30.6452 179.375 28.6402 179.181 26.0302H183.315C183.413 26.9717 184.271 27.6107 185.421 27.6107C186.498 27.6107 187.06 27.1275 187.06 26.5224C187.06 24.3481 179.62 25.9173 179.62 20.966C179.62 18.6698 181.602 16.7845 185.176 16.7845C188.7 16.7845 190.664 18.7172 190.927 21.3746H187.06C186.937 20.458 186.228 19.8529 185.053 19.8529C184.074 19.8529 183.537 20.239 183.537 20.8915C183.537 23.0431 190.927 21.5214 191 26.5472C191 28.8818 188.894 30.6452 185.469 30.6452Z" fill="white"/>
<defs>
<linearGradient id="paint0_linear" x1="11.5239" y1="20.9434" x2="31.1742" y2="1.0433" gradientUnits="userSpaceOnUse">
<stop offset="0.17" stop-color="#F26B7F"/>
<stop offset="1" stop-color="#F8AF4B"/>
</linearGradient>
<linearGradient id="paint1_linear" x1="1.65769" y1="42.7063" x2="21.308" y2="22.8063" gradientUnits="userSpaceOnUse">
<stop stop-color="#00D1FD"/>
<stop offset="1" stop-color="#0459F1"/>
</linearGradient>
</defs>
</svg>
