<svg id="Camada_1" data-name="Camada 1" xmlns="http://www.w3.org/2000/svg" viewBox="0 0 308.97 48.95"><defs><style>.cls-1{fill:#fff;}.cls-2{fill:#52d6ff;}.cls-3{fill:#0458f1;}.cls-4{fill:#0588f9;}</style></defs><title>Logo3</title><path class="cls-1" d="M102.12,24.17c0,9.35-6.52,15-15.08,15-9.62,0-16.52-7.08-16.52-15.86a15.87,15.87,0,0,1,16-15.95,15.65,15.65,0,0,1,13.37,7L94,17.79a9.2,9.2,0,0,0-16.48,5.59c0,5.2,3.67,9,9.62,9,4.06,0,6.73-1.8,7.82-4.72H86.78V21.55h15.34Z"/><path class="cls-1" d="M104.74,27.67A11.58,11.58,0,1,1,116.32,39.2,11.46,11.46,0,0,1,104.74,27.67Zm16.61,0a5,5,0,1,0-10,0,5,5,0,1,0,10,0Z"/><path class="cls-1" d="M138.83,14.73v5.9h11.36v6.73H138.83V38.59h-7V8h18.57v6.73Z"/><path class="cls-1" d="M153.69,10.88a3.93,3.93,0,1,1,3.93,3.94A4,4,0,0,1,153.69,10.88Zm.65,5.86h6.56V38.59h-6.56Z"/><path class="cls-1" d="M186.68,25.18V38.59h-6.55V26.14a3.61,3.61,0,0,0-3.8-4c-2.41,0-4.07,1.4-4.07,4.5V38.59h-6.55V16.74h6.55V18.8c1.18-1.62,3.37-2.67,6.25-2.67C182.92,16.13,186.68,19.28,186.68,25.18Z"/><path class="cls-1" d="M213.6,16.74V38.59h-6.55V36.54a8.2,8.2,0,0,1-6.51,2.66c-5.73,0-10.45-5-10.45-11.53s4.72-11.54,10.45-11.54a8.17,8.17,0,0,1,6.51,2.67V16.74Zm-6.55,10.93a5.2,5.2,0,1,0-10.4,0,5.2,5.2,0,1,0,10.4,0Z"/><path class="cls-1" d="M239.39,25.18V38.59h-6.56V26.14a3.6,3.6,0,0,0-3.8-4c-2.4,0-4.06,1.4-4.06,4.5V38.59h-6.56V16.74H225V18.8c1.18-1.62,3.36-2.67,6.25-2.67C235.63,16.13,239.39,19.28,239.39,25.18Z"/><path class="cls-1" d="M242.8,27.67a11.56,11.56,0,0,1,21.46-6l-5.73,3.33a4.5,4.5,0,0,0-4.24-2.45,4.81,4.81,0,0,0-4.94,5.07,4.81,4.81,0,0,0,4.94,5.07,4.48,4.48,0,0,0,4.24-2.45l5.73,3.28a11.18,11.18,0,0,1-9.88,5.63A11.32,11.32,0,0,1,242.8,27.67Z"/><path class="cls-1" d="M277.54,33.35a5.74,5.74,0,0,0,4.2-1.66l5.24,3c-2.14,3-5.37,4.5-9.52,4.5-7.48,0-12.11-5-12.11-11.53A11.21,11.21,0,0,1,277,16.13c6.39,0,11.1,4.94,11.1,11.54a12.39,12.39,0,0,1-.26,2.62H272.3C273.13,32.56,275.14,33.35,277.54,33.35Zm4-8a4.92,4.92,0,0,0-9.39,0Z"/><path class="cls-1" d="M307.87,32c0,5-4.37,7.16-9.09,7.16-4.37,0-7.69-1.66-9.39-5.2l5.68-3.23a3.59,3.59,0,0,0,3.71,2.58c1.58,0,2.36-.48,2.36-1.36,0-2.4-10.75-1.13-10.75-8.69,0-4.77,4-7.17,8.57-7.17a9.55,9.55,0,0,1,8.52,4.68l-5.59,3A3.18,3.18,0,0,0,299,21.9c-1.14,0-1.84.44-1.84,1.22C297.12,25.61,307.87,24,307.87,32Z"/><path class="cls-2" d="M46.52,27.79H37.1l-1.44-6.45a3.92,3.92,0,0,0-3.63-3H11.8l-1.44-6.44a2.3,2.3,0,0,1,2.31-3H42.31a3.93,3.93,0,0,1,3.64,3l2.88,12.89A2.31,2.31,0,0,1,46.52,27.79Z"/><path class="cls-3" d="M37.1,27.79H16.87a3.92,3.92,0,0,1-3.63-3L11.8,18.37H32a3.92,3.92,0,0,1,3.63,3Z"/><path class="cls-4" d="M36.23,37.2H6.58a3.92,3.92,0,0,1-3.63-3L.07,21.34a2.31,2.31,0,0,1,2.31-3H11.8l1.44,6.45a3.92,3.92,0,0,0,3.63,3H37.1l1.44,6.44A2.31,2.31,0,0,1,36.23,37.2Z"/></svg>